# xmcd
#
# Track frame offsets:
#  150
#  26263
#  41073
#  59203
#  71745
#  88200
#  102595
#  132928
#  148348
#  165700
#  180845
#  195210
#  205908
#  223063
#
# Disc length: 3152 seconds
#
# Revision: 1
# Processed by: cddbd v1.5.1PL2 Copyright (c) Steve Scherf et al.
# Submitted via: Collectorz.com_Music_Collector 6.10
#
DISCID=d60c4e0e
DTITLE=Gerard Joling - The Very Best Of
DYEAR=1991
DGENRE=Pop
TTITLE0=Ticket to the tropics
TTITLE1=Crying
TTITLE2=Hearts On Fire
TTITLE3=Jamaica Farewell
TTITLE4=Reach
TTITLE5=Blue
TTITLE6=Spanish Heart
TTITLE7=No Strings Attached
TTITLE8=I Can Only Give You Everything
TTITLE9=Sea Of Love
TTITLE10=One Of The Lonley Ones
TTITLE11=Don't Let The Music Die
TTITLE12=Eberybody Neds A Litle Rain (Duet Met Randy Crawford)
TTITLE13=Love Is In Your Eyes
EXTD=
EXTT0=
EXTT1=
EXTT2=
EXTT3=
EXTT4=
EXTT5=
EXTT6=
EXTT7=
EXTT8=
EXTT9=
EXTT10=
EXTT11=
EXTT12=
EXTT13=
PLAYORDER=
